<svg width="32" height="28" viewBox="0 0 32 28" fill="none" xmlns="http://www.w3.org/2000/svg">
<path fill-rule="evenodd" clip-rule="evenodd" d="M27.9528 7.48122C27.9641 7.77269 27.9679 8.06405 27.9679 8.35553C27.9679 17.1925 21.7515 27.3943 10.3839 27.3943C6.89192 27.3943 3.64492 26.2814 0.909149 24.3868C1.39275 24.4398 1.88388 24.4796 2.38255 24.4796C5.27785 24.4796 7.94453 23.4062 10.0598 21.6044C7.35542 21.5647 5.07186 19.6171 4.28429 16.9673C4.66237 17.0468 5.05173 17.0867 5.44991 17.0867C6.01139 17.0867 6.55653 17.0072 7.07906 16.8483C4.24909 16.2388 2.11752 13.5361 2.11752 10.2901C2.11752 10.2504 2.11752 10.2371 2.11752 10.2106C2.95156 10.7008 3.90618 11.0053 4.91985 11.0451C3.25929 9.83944 2.16773 7.78591 2.16773 5.46736C2.16773 4.24846 2.47171 3.09576 3.0068 2.10209C6.05409 6.15625 10.61 8.81931 15.7461 9.09754C15.6406 8.60733 15.5866 8.09075 15.5866 7.57405C15.5866 3.87761 18.3538 0.883301 21.7678 0.883301C23.5452 0.883301 25.1505 1.6916 26.2772 2.98999C27.6878 2.69851 29.0092 2.1421 30.205 1.37366C29.7415 2.93703 28.763 4.2484 27.4843 5.06983C28.7354 4.91084 29.9287 4.5534 31.0353 4.02344C30.205 5.36158 29.1599 6.54055 27.9528 7.48122Z" fill="#1EA1F2"/>
</svg>
