<svg width="40" height="40" viewBox="0 0 40 40" fill="none" xmlns="http://www.w3.org/2000/svg">
<path d="M5.83334 7.84436C5.83334 6.73365 6.73375 5.83325 7.84445 5.83325H32.1556C33.2663 5.83325 34.1667 6.73366 34.1667 7.84436V32.1554C34.1667 33.2661 33.2663 34.1665 32.1556 34.1665H7.84445C6.73375 34.1665 5.83334 33.2661 5.83334 32.1554V7.84436Z" fill="#0A66C2"/>
<path d="M12.1929 14.6324C13.5503 14.6324 14.6508 13.5319 14.6508 12.1745C14.6508 10.817 13.5503 9.71655 12.1929 9.71655C10.8354 9.71655 9.73495 10.817 9.73495 12.1745C9.73495 13.5319 10.8354 14.6324 12.1929 14.6324Z" fill="white"/>
<path d="M16.9018 16.4488H20.9754V18.315C20.9754 18.315 22.0808 16.1041 25.0884 16.1041C27.7714 16.1041 29.994 17.4258 29.994 21.4545V29.9497H25.7726V22.4839C25.7726 20.1073 24.5038 19.846 23.537 19.846C21.5306 19.846 21.1871 21.5767 21.1871 22.7939V29.9497H16.9018V16.4488Z" fill="white"/>
<path d="M10.0502 16.4489H14.3355V29.9497H10.0502V16.4489Z" fill="white"/>
</svg>
