<svg width="40" height="40" viewBox="0 0 40 40" fill="none" xmlns="http://www.w3.org/2000/svg">
<path d="M22.1353 19.9997C22.1353 25.2273 17.9263 29.4653 12.7342 29.4653C7.54199 29.4653 3.33334 25.2286 3.33334 19.9997C3.33334 14.7708 7.54231 10.5344 12.7342 10.5344C17.926 10.5344 22.1353 14.7721 22.1353 19.9997ZM32.4485 19.9997C32.4485 24.9209 30.3438 28.9099 27.7479 28.9099C25.152 28.9099 23.0473 24.9196 23.0473 19.9997C23.0473 15.0799 25.152 11.0896 27.7479 11.0896C30.3438 11.0896 32.4485 15.0799 32.4485 19.9997ZM36.6667 19.9997C36.6667 24.4088 35.9264 27.9829 35.0134 27.9829C34.1004 27.9829 33.3602 24.4076 33.3602 19.9997C33.3602 15.5919 34.1004 12.0166 35.0137 12.0166C35.927 12.0166 36.6667 15.5909 36.6667 19.9997Z" fill="black"/>
</svg>
